<svg width="25" height="24" viewBox="0 0 25 24" fill="none" xmlns="http://www.w3.org/2000/svg">
<path d="M7.5 8H17.5M7.5 12H17.5M7.5 16H17.5M3.5 6C3.5 5.46957 3.71071 4.96086 4.08579 4.58579C4.46086 4.21071 4.96957 4 5.5 4H19.5C20.0304 4 20.5391 4.21071 20.9142 4.58579C21.2893 4.96086 21.5 5.46957 21.5 6V18C21.5 18.5304 21.2893 19.0391 20.9142 19.4142C20.5391 19.7893 20.0304 20 19.5 20H5.5C4.96957 20 4.46086 19.7893 4.08579 19.4142C3.71071 19.0391 3.5 18.5304 3.5 18V6Z" stroke="#67DEAA" stroke-width="1.5" stroke-linecap="round" stroke-linejoin="round"/>
</svg>
