<svg width="32" height="32" viewBox="0 0 32 32" fill="none" xmlns="http://www.w3.org/2000/svg">
<rect x="0.5" y="0.5" width="31" height="31" rx="1.5" stroke="#383D6A"/>
<path d="M28 4V28H4V4H28Z" fill="white" fill-opacity="0.01"/>
<path fill-rule="evenodd" clip-rule="evenodd" d="M7 10C7 8.34315 8.34315 7 10 7H22C23.6569 7 25 8.34315 25 10V22C25 23.6569 23.6569 25 22 25H10C8.34315 25 7 23.6569 7 22V10ZM11 12C11 11.4477 11.4477 11 12 11H12.002C12.5542 11 13.002 11.4477 13.002 12C13.002 12.5523 12.5542 13 12.002 13H12C11.4477 13 11 12.5523 11 12ZM18.5027 15.1915C18.1478 14.9783 17.653 14.8896 17.1961 14.981C16.9503 15.0302 16.6296 15.234 16.3414 15.5583C16.2064 15.7102 16.1054 15.8594 16.0436 15.9759C16.0206 16.0193 16.0073 16.0499 16 16.0684V20C16 20.5523 15.5523 21 15 21C14.4477 21 14 20.5523 14 20V14C14 13.4477 14.4477 13 15 13C15.3341 13 15.63 13.1639 15.8116 13.4156C16.1084 13.2359 16.4413 13.0924 16.8039 13.0198C17.7277 12.8351 18.7328 12.9964 19.5329 13.4772C20.3559 13.9718 21 14.8394 21 16.0003V20.0003C21 20.5526 20.5523 21.0003 20 21.0003C19.4477 21.0003 19 20.5526 19 20.0003V16.0003C19 15.6613 18.8344 15.3909 18.5027 15.1915ZM12 14C12.5523 14 13 14.4477 13 15V20C13 20.5523 12.5523 21 12 21C11.4477 21 11 20.5523 11 20V15C11 14.4477 11.4477 14 12 14Z" fill="#111537"/>
</svg>
