<svg width="32" height="32" viewBox="0 0 32 32" fill="none" xmlns="http://www.w3.org/2000/svg">
<rect x="0.5" y="0.5" width="31" height="31" rx="1.5" stroke="#383D6A"/>
<path d="M28 4V28H4V4H28Z" fill="white" fill-opacity="0.01"/>
<path d="M23.7526 8.65852C24.1163 8.24288 24.0741 7.61112 23.6585 7.24744C23.2429 6.88375 22.6111 6.92587 22.2474 7.34151L17.1367 13.1823L12.8 7.40001C12.6112 7.14821 12.3148 7.00001 12 7.00001H8.00001C7.62123 7.00001 7.27497 7.21402 7.10558 7.5528C6.93619 7.89158 6.97274 8.297 7.20001 8.60001L13.6367 17.1823L8.24742 23.3415C7.88374 23.7571 7.92586 24.3889 8.3415 24.7526C8.75713 25.1163 9.38889 25.0742 9.75258 24.6585L14.8633 18.8177L19.2 24.6C19.3889 24.8518 19.6852 25 20 25H24C24.3788 25 24.725 24.786 24.8944 24.4472C25.0638 24.1084 25.0273 23.703 24.8 23.4L18.3633 14.8177L23.7526 8.65852Z" fill="#111537"/>
</svg>
