<svg width="32" height="32" viewBox="0 0 32 32" fill="none" xmlns="http://www.w3.org/2000/svg">
<rect x="0.5" y="0.5" width="31" height="31" rx="1.5" stroke="#383D6A"/>
<path d="M28 4V28H4V4H28Z" fill="white" fill-opacity="0.01"/>
<path fill-rule="evenodd" clip-rule="evenodd" d="M16 8.25C13.7857 8.25 11.4286 8.40096 9.75172 8.53705C8.03232 8.67658 6.65334 10.0061 6.48551 11.7352C6.36573 12.9693 6.25 14.5375 6.25 16C6.25 17.4625 6.36573 19.0307 6.48551 20.2648C6.65334 21.9939 8.03232 23.3234 9.75172 23.463C11.4286 23.599 13.7857 23.75 16 23.75C18.2143 23.75 20.5714 23.599 22.2483 23.463C23.9677 23.3234 25.3467 21.9939 25.5145 20.2648C25.6343 19.0307 25.75 17.4625 25.75 16C25.75 14.5375 25.6343 12.9693 25.5145 11.7352C25.3467 10.0061 23.9677 8.67658 22.2483 8.53705C20.5714 8.40096 18.2143 8.25 16 8.25ZM14.9 18.9445L19.1 16.5196C19.5 16.2887 19.5 15.7113 19.1 15.4804L14.9 13.0555C14.5 12.8246 14 13.1132 14 13.5751L14 18.4249C14 18.8868 14.5 19.1754 14.9 18.9445Z" fill="#111537"/>
</svg>
