<svg width="32" height="32" viewBox="0 0 32 32" fill="none" xmlns="http://www.w3.org/2000/svg">
<rect x="0.5" y="0.5" width="31" height="31" rx="1.5" stroke="#383D6A"/>
<path d="M28 4V28H4V4H28Z" fill="white" fill-opacity="0.01"/>
<path fill-rule="evenodd" clip-rule="evenodd" d="M17.5 25.8883C22.3113 25.1645 26 21.013 26 16C26 10.4772 21.5228 6 16 6C10.4772 6 6 10.4772 6 16C6 21.013 9.68874 25.1645 14.5 25.8883V19H13.5C12.6716 19 12 18.3284 12 17.5C12 16.6716 12.6716 16 13.5 16H14.5V14C14.5 12.067 16.067 10.5 18 10.5H18.5C19.3284 10.5 20 11.1716 20 12C20 12.8284 19.3284 13.5 18.5 13.5H18C17.7239 13.5 17.5 13.7239 17.5 14V16H18.5C19.3284 16 20 16.6716 20 17.5C20 18.3284 19.3284 19 18.5 19H17.5V25.8883Z" fill="#111537"/>
</svg>
