<svg width="240" height="72" viewBox="0 0 240 72" fill="none" xmlns="http://www.w3.org/2000/svg">
<g clip-path="url(#clip0_9241_16282)">
<path d="M2.88041 71.8974V68.5079L3.49764 70.0486L0 64.1941H2.77754L5.14359 68.1998H3.49764L5.86369 64.1941H8.33262L4.83498 70.0486L5.45221 68.5079V71.8974H2.88041Z" fill="#73F0C5"/>
<path d="M13.888 72.0001C13.2708 72.0001 12.6535 71.8974 12.1392 71.6919C11.6248 71.4865 11.1105 71.1784 10.8018 70.8702C10.4932 70.5621 10.0817 70.0486 9.876 69.6377C9.67025 69.1242 9.56738 68.6106 9.56738 67.9944C9.56738 67.3781 9.67025 66.8645 9.876 66.351C10.0817 65.8374 10.3904 65.4266 10.8018 65.1185C11.2133 64.7076 11.6248 64.5022 12.1392 64.2968C12.6535 64.0914 13.2708 63.9886 13.888 63.9886C14.5052 63.9886 15.1225 64.0914 15.6368 64.2968C16.1512 64.5022 16.6655 64.8103 16.9742 65.1185C17.3856 65.5293 17.6943 65.9401 17.9 66.351C18.1057 66.8645 18.2086 67.3781 18.2086 67.9944C18.2086 68.6106 18.1057 69.1242 17.9 69.6377C17.6943 70.1513 17.3856 70.5621 16.9742 70.8702C16.5627 71.1784 16.1512 71.4865 15.6368 71.6919C15.1225 71.8974 14.5052 72.0001 13.888 72.0001ZM13.888 69.9459C14.0937 69.9459 14.4024 69.9459 14.6081 69.8431C14.8138 69.7404 15.0196 69.6377 15.1225 69.4323C15.3282 69.2269 15.4311 69.0215 15.5339 68.816C15.6368 68.6106 15.6368 68.3025 15.6368 67.9944C15.6368 67.6862 15.6368 67.3781 15.5339 67.1727C15.4311 66.9673 15.3282 66.7618 15.1225 66.5564C14.9167 66.351 14.8138 66.2483 14.6081 66.1456C14.4024 66.0429 14.1966 66.0429 13.888 66.0429C13.6823 66.0429 13.3736 66.0429 13.1679 66.1456C12.9622 66.2483 12.7564 66.351 12.6535 66.5564C12.5507 66.7618 12.3449 66.9673 12.242 67.1727C12.1392 67.3781 12.1392 67.6862 12.1392 67.9944C12.1392 68.3025 12.1392 68.6106 12.242 68.816C12.3449 69.0215 12.4478 69.2269 12.6535 69.4323C12.8593 69.6377 12.9622 69.7404 13.1679 69.8431C13.3736 69.9459 13.6823 69.9459 13.888 69.9459Z" fill="#73F0C5"/>
<path d="M23.9693 72.0001C22.8378 72.0001 21.9119 71.6919 21.1918 71.0757C20.5746 70.4594 20.1631 69.535 20.1631 68.4052V64.1941H22.7349V68.3025C22.7349 68.9188 22.8378 69.3296 23.0435 69.535C23.2492 69.7405 23.5579 69.9459 23.8665 69.9459C24.278 69.9459 24.4837 69.8432 24.6894 69.535C24.8952 69.2269 24.9981 68.9188 24.9981 68.3025V64.1941H27.5699V68.4052C27.5699 69.535 27.2612 70.4594 26.5411 71.0757C26.0268 71.6919 25.1009 72.0001 23.9693 72.0001Z" fill="#73F0C5"/>
<path d="M30.0391 71.8974V64.1941H33.7424C34.4625 64.1941 35.0798 64.2968 35.5941 64.5022C36.1085 64.7076 36.52 65.1185 36.8286 65.5293C37.1372 65.9402 37.2401 66.4537 37.2401 67.07C37.2401 67.6862 37.1372 68.1998 36.8286 68.6106C36.52 69.0215 36.1085 69.3296 35.5941 69.6377C35.0798 69.8432 34.4625 69.9459 33.7424 69.9459H31.4793L32.6109 68.9188V71.8974H30.0391ZM32.6109 69.1242L31.4793 67.9944H33.5367C33.8453 67.9944 34.1539 67.8917 34.3597 67.789C34.5654 67.5835 34.6683 67.3781 34.6683 67.1727C34.6683 66.8646 34.5654 66.6591 34.3597 66.5564C34.1539 66.351 33.9482 66.351 33.5367 66.351H31.4793L32.6109 65.2212V69.1242ZM34.5654 71.8974L32.7137 69.1242H35.4913L37.4458 71.8974H34.5654Z" fill="#73F0C5"/>
<path d="M45.3667 71.8974V66.2483H43.1035V64.1941H50.2017V66.2483H47.9385V71.8974H45.3667Z" fill="#73F0C5"/>
<path d="M51.9502 71.8974V64.1941H55.6536C56.3737 64.1941 56.9909 64.2968 57.5053 64.5022C58.0196 64.7076 58.4311 65.1185 58.7397 65.5293C59.0484 65.9402 59.1512 66.4537 59.1512 67.07C59.1512 67.6862 59.0484 68.1998 58.7397 68.6106C58.4311 69.0215 58.0196 69.3296 57.5053 69.6377C56.9909 69.8432 56.3737 69.9459 55.6536 69.9459H53.3904L54.522 68.9188V71.8974H51.9502ZM54.6249 69.1242L53.4933 67.9944H55.5507C55.8593 67.9944 56.1679 67.8917 56.3737 67.789C56.5794 67.5835 56.6823 67.3781 56.6823 67.1727C56.6823 66.8646 56.5794 66.6591 56.3737 66.5564C56.1679 66.351 55.9622 66.351 55.5507 66.351H53.4933L54.6249 65.2212V69.1242ZM56.5794 71.8974L54.7277 69.1242H57.5053L59.4598 71.8974H56.5794Z" fill="#73F0C5"/>
<path d="M65.0152 72.0001C63.8837 72.0001 62.9578 71.6919 62.2377 71.0757C61.6205 70.4594 61.209 69.535 61.209 68.4052V64.1941H63.7808V68.3025C63.7808 68.9188 63.8837 69.3296 64.0894 69.535C64.2951 69.7405 64.6038 69.9459 64.9124 69.9459C65.3239 69.9459 65.5296 69.8432 65.7353 69.535C65.9411 69.2269 66.044 68.9188 66.044 68.3025V64.1941H68.6158V68.4052C68.6158 69.535 68.3071 70.4594 67.587 71.0757C67.0727 71.6919 66.1468 72.0001 65.0152 72.0001Z" fill="#73F0C5"/>
<path d="M73.8622 72.0001C73.245 72.0001 72.6278 71.8974 72.0105 71.7947C71.3933 71.692 70.8789 71.4865 70.5703 71.1784L71.3933 69.3296C71.8048 69.535 72.2163 69.7405 72.6277 69.8432C73.0392 69.9459 73.5536 70.0486 73.9651 70.0486C74.1708 70.0486 74.3766 70.0486 74.5823 70.0486C74.6852 70.0486 74.7881 69.9459 74.8909 69.9459C74.9938 69.8432 74.9938 69.8432 74.9938 69.7405C74.9938 69.6377 74.8909 69.535 74.7881 69.4323C74.6852 69.3296 74.4794 69.3296 74.1708 69.2269C73.8622 69.1242 73.6565 69.1242 73.3479 69.0215C73.0392 68.9188 72.7306 68.9188 72.422 68.8161C72.1134 68.7134 71.8048 68.6106 71.599 68.4052C71.3933 68.1998 71.1875 67.9944 70.9818 67.789C70.7761 67.4808 70.7761 67.1727 70.7761 66.7619C70.7761 66.2483 70.8789 65.8375 71.1875 65.4266C71.4962 65.0158 71.8048 64.7076 72.422 64.5022C72.9364 64.2968 73.6565 64.1941 74.3766 64.1941C74.8909 64.1941 75.4053 64.2968 75.9197 64.3995C76.434 64.5022 76.8455 64.7076 77.257 64.9131L76.434 66.7619C76.0225 66.5564 75.7139 66.4537 75.3024 66.351C74.8909 66.2483 74.5823 66.2483 74.2737 66.2483C74.068 66.2483 73.8622 66.2483 73.6565 66.351C73.4507 66.4537 73.4507 66.4537 73.3479 66.5564C73.245 66.6591 73.245 66.6591 73.245 66.7619C73.245 66.8646 73.3479 66.9673 73.4507 67.07C73.5536 67.1727 73.7593 67.1727 74.068 67.2754C74.3766 67.3781 74.5823 67.3781 74.8909 67.4808C75.1995 67.5835 75.5082 67.5835 75.8168 67.6862C76.1254 67.789 76.434 67.8917 76.6398 68.0971C76.8455 68.3025 77.0512 68.5079 77.257 68.7134C77.3599 69.0215 77.4627 69.3296 77.4627 69.7405C77.4627 70.254 77.3599 70.6648 77.0512 71.0757C76.7426 71.4865 76.434 71.7947 75.8168 72.0001C75.3024 71.8974 74.6852 72.0001 73.8622 72.0001Z" fill="#73F0C5"/>
<path d="M80.9604 71.8974V66.2483H78.6973V64.1941H85.7954V66.2483H83.5322V71.8974H80.9604Z" fill="#73F0C5"/>
<path d="M90.2183 69.9459H94.0245V71.8974H87.6465V64.1941H93.9217V66.1456H90.2183V69.9459ZM90.0125 67.07H93.4073V68.9188H90.0125V67.07Z" fill="#73F0C5"/>
<path d="M96.1855 71.8974V64.1941H99.9918C100.815 64.1941 101.638 64.3995 102.255 64.7076C102.872 65.0158 103.387 65.4266 103.798 66.0429C104.21 66.6591 104.312 67.2754 104.312 68.0971C104.312 68.9188 104.107 69.535 103.798 70.1513C103.489 70.7676 102.872 71.1784 102.255 71.4865C101.535 71.692 100.815 71.8974 99.8889 71.8974H96.1855ZM98.7573 69.8432H99.7861C100.198 69.8432 100.506 69.7405 100.712 69.6377C101.021 69.535 101.226 69.3296 101.329 69.0215C101.432 68.7133 101.535 68.4052 101.535 67.9944C101.535 67.5835 101.432 67.2754 101.329 66.9673C101.226 66.6591 100.918 66.4537 100.712 66.351C100.403 66.2483 100.095 66.1456 99.7861 66.1456H98.7573V69.8432Z" fill="#73F0C5"/>
<path d="M112.439 71.8974V66.2483H110.176V64.1941H117.274V66.2483H115.011V71.8974H112.439Z" fill="#73F0C5"/>
<path d="M119.022 71.8974V64.1941H122.726C123.446 64.1941 124.063 64.2968 124.578 64.5022C125.092 64.7076 125.503 65.1185 125.812 65.5293C126.121 65.9402 126.223 66.4537 126.223 67.07C126.223 67.6862 126.121 68.1998 125.812 68.6106C125.503 69.0215 125.092 69.3296 124.578 69.6377C124.063 69.8432 123.446 69.9459 122.726 69.9459H120.463L121.594 68.9188V71.8974H119.022ZM121.594 69.1242L120.463 67.9944H122.52C122.829 67.9944 123.137 67.8917 123.343 67.789C123.549 67.5835 123.652 67.3781 123.652 67.1727C123.652 66.8646 123.549 66.6591 123.343 66.5564C123.137 66.351 122.932 66.351 122.52 66.351H120.463L121.594 65.2212V69.1242ZM123.652 71.8974L121.8 69.1242H124.578L126.532 71.8974H123.652Z" fill="#73F0C5"/>
<path d="M127.458 71.8974L130.853 64.1941H133.425L136.819 71.8974H134.145L131.676 65.4266H132.704L130.236 71.8974H127.458ZM129.515 70.5621L130.133 68.7134H133.63L134.248 70.5621H129.515Z" fill="#73F0C5"/>
<path d="M138.26 71.8974V64.1941H142.066C142.889 64.1941 143.712 64.3995 144.329 64.7076C144.946 65.0158 145.461 65.4266 145.872 66.0429C146.284 66.6591 146.387 67.2754 146.387 68.0971C146.387 68.9188 146.181 69.535 145.872 70.1513C145.564 70.7676 144.946 71.1784 144.329 71.4865C143.712 71.7947 142.889 72.0001 142.066 72.0001H138.26V71.8974ZM140.832 69.8432H141.963C142.375 69.8432 142.683 69.7405 142.889 69.6377C143.198 69.535 143.403 69.3296 143.506 69.0215C143.609 68.7133 143.712 68.4052 143.712 67.9944C143.712 67.5835 143.609 67.2754 143.506 66.9673C143.403 66.6591 143.095 66.4537 142.889 66.351C142.58 66.2483 142.272 66.1456 141.963 66.1456H140.832V69.8432Z" fill="#73F0C5"/>
<path d="M148.444 71.8974V64.1941H151.016V71.8974H148.444Z" fill="#73F0C5"/>
<path d="M153.382 71.8973V64.194H155.542L159.451 68.816H158.423V64.0913H160.994V71.8973H158.834L154.925 67.1726H155.954V71.8973H153.382Z" fill="#73F0C5"/>
<path d="M167.372 72.0001C166.755 72.0001 166.138 71.8974 165.624 71.6919C165.109 71.4865 164.595 71.1784 164.286 70.8702C163.875 70.5621 163.566 70.0486 163.36 69.6377C163.155 69.2269 163.052 68.6106 163.052 67.9944C163.052 67.3781 163.155 66.8645 163.36 66.351C163.566 65.8374 163.875 65.4266 164.286 65.1185C164.698 64.8103 165.109 64.5022 165.624 64.2968C166.138 64.0914 166.755 63.9886 167.372 63.9886C168.092 63.9886 168.813 64.0914 169.43 64.3995C170.047 64.6049 170.561 65.0158 170.87 65.5293L169.224 66.9672C169.018 66.6591 168.71 66.4537 168.401 66.351C168.092 66.2483 167.784 66.1456 167.475 66.1456C167.167 66.1456 166.961 66.1456 166.652 66.2483C166.344 66.351 166.241 66.4537 166.035 66.6591C165.829 66.8645 165.726 67.07 165.624 67.2754C165.521 67.4808 165.521 67.7889 165.521 68.0971C165.521 68.4052 165.521 68.6106 165.624 68.9187C165.726 69.1242 165.829 69.3296 166.035 69.535C166.241 69.7404 166.344 69.8431 166.652 69.9459C166.858 70.0486 167.167 70.0486 167.372 70.0486C167.681 70.0486 167.99 70.0486 168.195 69.9459C168.504 69.8431 168.813 69.6377 169.121 69.4323L170.561 71.1784C170.047 71.4865 169.533 71.6919 168.915 71.8974C168.504 72.0001 167.887 72.0001 167.372 72.0001ZM168.504 70.7675V67.7889H170.767V71.0757L168.504 70.7675Z" fill="#73F0C5"/>
<path d="M177.351 71.8974V64.1941H181.054C181.774 64.1941 182.391 64.2968 182.906 64.5022C183.42 64.7076 183.832 65.1185 184.14 65.5293C184.449 65.9402 184.552 66.4537 184.552 67.07C184.552 67.6862 184.449 68.1998 184.14 68.6106C183.832 69.0215 183.42 69.3296 182.906 69.6377C182.391 69.8432 181.774 69.9459 181.054 69.9459H178.791L179.922 68.8161V71.8974H177.351ZM179.922 69.1242L178.791 67.9944H180.848C181.157 67.9944 181.465 67.8917 181.671 67.789C181.877 67.5835 181.98 67.3781 181.98 67.1727C181.98 66.8646 181.877 66.6591 181.671 66.5564C181.465 66.351 181.26 66.351 180.848 66.351H178.791L179.922 65.2212V69.1242Z" fill="#73F0C5"/>
<path d="M185.786 71.8974L189.181 64.1941H191.753L195.147 71.8974H192.37L189.901 65.4266H190.93L188.461 71.8974H185.786ZM187.741 70.5621L188.358 68.7134H191.856L192.473 70.5621H187.741Z" fill="#73F0C5"/>
<path d="M196.588 71.8974V64.1941H200.291C201.011 64.1941 201.629 64.2968 202.143 64.5022C202.657 64.7076 203.069 65.1185 203.377 65.5293C203.686 65.9402 203.789 66.4537 203.789 67.07C203.789 67.6862 203.686 68.1998 203.377 68.6106C203.069 69.0215 202.657 69.3296 202.143 69.6377C201.629 69.8432 201.011 69.9459 200.291 69.9459H198.028L199.16 68.9188V71.8974H196.588ZM199.16 69.1242L198.028 67.9944H200.086C200.394 67.9944 200.703 67.8917 200.909 67.789C201.114 67.5835 201.217 67.3781 201.217 67.1727C201.217 66.8646 201.114 66.6591 200.909 66.5564C200.703 66.351 200.497 66.351 200.086 66.351H198.028L199.16 65.2212V69.1242ZM201.217 71.8974L199.365 69.1242H202.143L204.098 71.8974H201.217Z" fill="#73F0C5"/>
<path d="M207.493 71.8974V66.2483H205.229V64.1941H212.328V66.2483H210.064V71.8974H207.493Z" fill="#73F0C5"/>
<path d="M214.179 71.8974V64.1941H216.339L220.248 68.9188H219.219V64.1941H221.791V71.8974H219.631L215.722 67.1727H216.751V71.8974H214.179Z" fill="#73F0C5"/>
<path d="M226.626 69.9459H230.433V71.8974H224.055V64.1941H230.33V66.1456H226.626V69.9459ZM226.524 67.07H229.918V68.9188H226.524V67.07Z" fill="#73F0C5"/>
<path d="M232.593 71.8974V64.1941H236.296C237.016 64.1941 237.633 64.2968 238.148 64.5022C238.662 64.7076 239.074 65.1185 239.382 65.5293C239.691 65.9402 239.794 66.4537 239.794 67.07C239.794 67.6862 239.691 68.1998 239.382 68.6106C239.074 69.0215 238.662 69.3296 238.148 69.6377C237.633 69.8432 237.016 69.9459 236.296 69.9459H234.033L235.165 68.9188V71.8974H232.593ZM235.165 69.1242L234.033 67.9944H236.09C236.399 67.9944 236.708 67.8917 236.913 67.789C237.119 67.5835 237.222 67.3781 237.222 67.1727C237.222 66.8646 237.119 66.6591 236.913 66.5564C236.708 66.351 236.502 66.351 236.09 66.351H234.033L235.165 65.2212V69.1242ZM237.222 71.8974L235.37 69.1242H238.148L240.102 71.8974H237.222Z" fill="#73F0C5"/>
<path d="M51.6414 13.7632C55.448 13.7632 58.5339 10.6822 58.5339 6.8816C58.5339 3.081 55.448 0 51.6414 0C47.8349 0 44.749 3.081 44.749 6.8816C44.749 10.6822 47.8349 13.7632 51.6414 13.7632Z" fill="#73F0C5"/>
<path d="M40.2226 42.1112H53.0816V51.1497H22.1172L36.5192 29.5805H24.0718V20.542H54.5218L40.2226 42.1112Z" fill="white"/>
<path d="M70.9812 20.542V51.1497H60.1797V20.542H70.9812Z" fill="white"/>
<path d="M77.874 20.5419H88.6756V24.3422C91.6588 21.569 94.9508 20.1311 98.5513 20.1311C103.078 20.1311 106.575 22.0826 108.941 25.8829C111.41 21.9799 114.805 20.1311 119.331 20.1311C120.772 20.1311 122.109 20.3365 123.343 20.7474C124.578 21.1582 125.709 21.7745 126.635 22.6989C127.561 23.6233 128.281 24.7531 128.796 26.191C129.31 27.629 129.619 29.375 129.619 31.3265V51.1496H118.817V35.9485C118.817 34.4079 118.714 33.1753 118.508 32.1482C118.303 31.1211 117.994 30.4021 117.583 29.7859C117.171 29.2723 116.657 28.8615 116.142 28.6561C115.628 28.4506 115.011 28.3479 114.394 28.3479C110.896 28.3479 109.25 30.9157 109.25 35.9485V51.0469H98.3455V35.9485C98.3455 34.4079 98.2427 33.0726 98.0369 32.1482C97.8312 31.1211 97.5225 30.2994 97.2139 29.7859C96.8024 29.1696 96.391 28.7588 95.7737 28.5534C95.1565 28.3479 94.4364 28.2452 93.7163 28.2452C92.9962 28.2452 92.379 28.3479 91.7617 28.5534C91.1445 28.7588 90.6301 29.1696 90.2186 29.6832C89.8072 30.2994 89.3957 31.0184 89.1899 32.0455C88.8813 33.0726 88.7784 34.4078 88.7784 36.0512V51.1496H77.874V20.5419Z" fill="white"/>
<path d="M159.76 20.542H170.561V25.5749C171.693 23.7261 173.133 22.3908 174.779 21.3637C176.425 20.4393 178.38 19.9258 180.643 19.9258C180.951 19.9258 181.26 19.9258 181.569 19.9258C181.877 19.9258 182.289 19.9258 182.7 20.0285V30.2995C181.26 29.5806 179.717 29.2724 178.071 29.2724C175.602 29.2724 173.647 29.9914 172.413 31.5321C171.179 32.97 170.561 35.2296 170.561 38.1055V51.2525H159.76V20.542Z" fill="white"/>
<path d="M211.299 20.5421V23.6234C208.83 20.9529 205.641 19.6177 201.835 19.6177C199.572 19.6177 197.514 20.0285 195.662 20.8502C193.811 21.6719 192.165 22.9044 190.827 24.3424C189.49 25.7803 188.461 27.5264 187.638 29.4779C186.918 31.4294 186.507 33.4836 186.507 35.7432C186.507 38.1055 186.918 40.2625 187.638 42.214C188.461 44.1655 189.49 45.9115 190.93 47.3495C192.371 48.7874 193.914 49.9172 195.868 50.7389C197.72 51.5606 199.777 51.9715 202.04 51.9715C205.95 51.9715 209.139 50.5335 211.402 47.6576V51.0471H222.203V20.5421H211.299ZM204.715 42.6248C200.909 42.6248 197.823 39.5435 197.823 35.7432C197.823 31.9429 200.909 28.8616 204.715 28.8616C208.521 28.8616 211.608 31.9429 211.608 35.7432C211.608 39.5435 208.419 42.6248 204.715 42.6248Z" fill="white"/>
<path d="M148.444 29.5805V51.1497H137.643V29.5805H134.042V20.542H137.643V11.9143H148.444V20.542H154.616V29.5805H148.444Z" fill="white"/>
</g>
<defs>
<clipPath id="clip0_9241_16282">
<rect width="240" height="72" fill="white"/>
</clipPath>
</defs>
</svg>
