<svg width="207" height="52" viewBox="0 0 207 52" fill="none" xmlns="http://www.w3.org/2000/svg">
<path d="M35.6414 13.7632C39.448 13.7632 42.5339 10.6822 42.5339 6.8816C42.5339 3.081 39.448 0 35.6414 0C31.8349 0 28.749 3.081 28.749 6.8816C28.749 10.6822 31.8349 13.7632 35.6414 13.7632Z" fill="#73F0C5"/>
<path d="M24.2226 42.1112H37.0816V51.1497H6.11719L20.5192 29.5805H8.07175V20.542H38.5218L24.2226 42.1112Z" fill="white"/>
<path d="M54.9812 20.542V51.1497H44.1797V20.542H54.9812Z" fill="white"/>
<path d="M61.874 20.5419H72.6756V24.3422C75.6588 21.569 78.9508 20.1311 82.5513 20.1311C87.0776 20.1311 90.5753 22.0826 92.9413 25.8829C95.4102 21.9799 98.805 20.1311 103.331 20.1311C104.772 20.1311 106.109 20.3365 107.343 20.7474C108.578 21.1582 109.709 21.7745 110.635 22.6989C111.561 23.6233 112.281 24.7531 112.796 26.191C113.31 27.629 113.619 29.375 113.619 31.3265V51.1496H102.817V35.9485C102.817 34.4079 102.714 33.1753 102.508 32.1482C102.303 31.1211 101.994 30.4021 101.583 29.7859C101.171 29.2723 100.657 28.8615 100.142 28.6561C99.628 28.4506 99.0108 28.3479 98.3935 28.3479C94.8959 28.3479 93.2499 30.9157 93.2499 35.9485V51.0469H82.3455V35.9485C82.3455 34.4079 82.2427 33.0726 82.0369 32.1482C81.8312 31.1211 81.5225 30.2994 81.2139 29.7859C80.8024 29.1696 80.391 28.7588 79.7737 28.5534C79.1565 28.3479 78.4364 28.2452 77.7163 28.2452C76.9962 28.2452 76.379 28.3479 75.7617 28.5534C75.1445 28.7588 74.6301 29.1696 74.2186 29.6832C73.8072 30.2994 73.3957 31.0184 73.1899 32.0455C72.8813 33.0726 72.7784 34.4078 72.7784 36.0512V51.1496H61.874V20.5419Z" fill="white"/>
<path d="M143.76 20.542H154.561V25.5749C155.693 23.7261 157.133 22.3908 158.779 21.3637C160.425 20.4393 162.38 19.9258 164.643 19.9258C164.951 19.9258 165.26 19.9258 165.569 19.9258C165.877 19.9258 166.289 19.9258 166.7 20.0285V30.2995C165.26 29.5806 163.717 29.2724 162.071 29.2724C159.602 29.2724 157.647 29.9914 156.413 31.5321C155.179 32.97 154.561 35.2296 154.561 38.1055V51.2525H143.76V20.542Z" fill="white"/>
<path d="M195.299 20.5421V23.6234C192.83 20.9529 189.641 19.6177 185.835 19.6177C183.572 19.6177 181.514 20.0285 179.662 20.8502C177.811 21.6719 176.165 22.9044 174.827 24.3424C173.49 25.7803 172.461 27.5264 171.638 29.4779C170.918 31.4294 170.507 33.4836 170.507 35.7432C170.507 38.1055 170.918 40.2625 171.638 42.214C172.461 44.1655 173.49 45.9115 174.93 47.3495C176.371 48.7874 177.914 49.9172 179.868 50.7389C181.72 51.5606 183.777 51.9715 186.04 51.9715C189.95 51.9715 193.139 50.5335 195.402 47.6576V51.0471H206.203V20.5421H195.299ZM188.715 42.6248C184.909 42.6248 181.823 39.5435 181.823 35.7432C181.823 31.9429 184.909 28.8616 188.715 28.8616C192.521 28.8616 195.608 31.9429 195.608 35.7432C195.608 39.5435 192.419 42.6248 188.715 42.6248Z" fill="white"/>
<path d="M132.444 29.5805V51.1497H121.643V29.5805H118.042V20.542H121.643V11.9143H132.444V20.542H138.616V29.5805H132.444Z" fill="white"/>
</svg>
