<svg width="25" height="24" viewBox="0 0 25 24" fill="none" xmlns="http://www.w3.org/2000/svg">
<g clip-path="url(#clip0_13223_86926)">
<path d="M9.5 11C9.5 11.7956 9.81607 12.5587 10.3787 13.1213C10.9413 13.6839 11.7044 14 12.5 14C13.2956 14 14.0587 13.6839 14.6213 13.1213C15.1839 12.5587 15.5 11.7956 15.5 11C15.5 10.2044 15.1839 9.44129 14.6213 8.87868C14.0587 8.31607 13.2956 8 12.5 8C11.7044 8 10.9413 8.31607 10.3787 8.87868C9.81607 9.44129 9.5 10.2044 9.5 11Z" stroke="#67DEAA" stroke-width="1.5" stroke-linecap="round" stroke-linejoin="round"/>
<path d="M18.157 16.6572L13.914 20.9002C13.539 21.2748 13.0306 21.4853 12.5005 21.4853C11.9704 21.4853 11.462 21.2748 11.087 20.9002L6.843 16.6572C5.72423 15.5384 4.96234 14.1129 4.65369 12.5611C4.34504 11.0092 4.50349 9.40071 5.10901 7.93893C5.71452 6.47714 6.7399 5.22774 8.05549 4.3487C9.37107 3.46967 10.9178 3.00049 12.5 3.00049C14.0822 3.00049 15.6289 3.46967 16.9445 4.3487C18.2601 5.22774 19.2855 6.47714 19.891 7.93893C20.4965 9.40071 20.655 11.0092 20.3463 12.5611C20.0377 14.1129 19.2758 15.5384 18.157 16.6572Z" stroke="#67DEAA" stroke-width="1.5" stroke-linecap="round" stroke-linejoin="round"/>
</g>
<defs>
<clipPath id="clip0_13223_86926">
<rect width="24" height="24" fill="white" transform="translate(0.5)"/>
</clipPath>
</defs>
</svg>
