<svg width="32" height="32" viewBox="0 0 32 32" fill="none" xmlns="http://www.w3.org/2000/svg">
<rect x="0.5" y="0.5" width="31" height="31" rx="1.5" stroke="#383D6A"/>
<path d="M28 4V28H4V4H28Z" fill="white" fill-opacity="0.01"/>
<path fill-rule="evenodd" clip-rule="evenodd" d="M7 12C7 9.23858 9.23858 7 12 7H20C22.7614 7 25 9.23858 25 12V20C25 22.7614 22.7614 25 20 25H12C9.23858 25 7 22.7614 7 20V12ZM16 14C14.8954 14 14 14.8954 14 16C14 17.1046 14.8954 18 16 18C17.1046 18 18 17.1046 18 16C18 14.8954 17.1046 14 16 14ZM12 16C12 13.7909 13.7909 12 16 12C18.2091 12 20 13.7909 20 16C20 18.2091 18.2091 20 16 20C13.7909 20 12 18.2091 12 16ZM20.5 12.5C21.0523 12.5 21.5 12.0523 21.5 11.5C21.5 10.9477 21.0523 10.5 20.5 10.5C19.9477 10.5 19.5 10.9477 19.5 11.5C19.5 12.0523 19.9477 12.5 20.5 12.5Z" fill="#111537"/>
</svg>
