<svg width="32" height="32" viewBox="0 0 32 32" fill="none" xmlns="http://www.w3.org/2000/svg">
<g clip-path="url(#clip0_13283_86744)">
<path d="M12 14.667C12 15.7279 12.4214 16.7453 13.1716 17.4954C13.9217 18.2456 14.9391 18.667 16 18.667C17.0609 18.667 18.0783 18.2456 18.8284 17.4954C19.5786 16.7453 20 15.7279 20 14.667C20 13.6061 19.5786 12.5887 18.8284 11.8386C18.0783 11.0884 17.0609 10.667 16 10.667C14.9391 10.667 13.9217 11.0884 13.1716 11.8386C12.4214 12.5887 12 13.6061 12 14.667Z" stroke="#67DEAA" stroke-width="2" stroke-linecap="round" stroke-linejoin="round"/>
<path d="M23.5433 22.2089L17.886 27.8663C17.386 28.3658 16.7081 28.6464 16.0013 28.6464C15.2945 28.6464 14.6167 28.3658 14.1167 27.8663L8.45799 22.2089C6.96628 20.7172 5.95044 18.8165 5.53891 16.7474C5.12737 14.6783 5.33864 12.5336 6.14599 10.5846C6.95334 8.63554 8.32052 6.96966 10.0746 5.79762C11.8287 4.62558 13.891 4 16.0007 4C18.1103 4 20.1726 4.62558 21.9267 5.79762C23.6808 6.96966 25.048 8.63554 25.8553 10.5846C26.6627 12.5336 26.8739 14.6783 26.4624 16.7474C26.0509 18.8165 25.035 20.7172 23.5433 22.2089Z" stroke="#67DEAA" stroke-width="2" stroke-linecap="round" stroke-linejoin="round"/>
</g>
<defs>
<clipPath id="clip0_13283_86744">
<rect width="32" height="32" fill="white"/>
</clipPath>
</defs>
</svg>
